<?xml version="1.0" encoding="utf-8"?>
<!-- Generator: Adobe Illustrator 16.0.0, SVG Export Plug-In . SVG Version: 6.00 Build 0)  -->
<!DOCTYPE svg PUBLIC "-//W3C//DTD SVG 1.1//EN" "http://www.w3.org/Graphics/SVG/1.1/DTD/svg11.dtd">
<svg version="1.1" id="Layer_1" xmlns="http://www.w3.org/2000/svg" xmlns:xlink="http://www.w3.org/1999/xlink" x="0px" y="0px"
	 width="249.998px" height="43.752px" viewBox="0 0 249.998 43.752" style="enable-background:new 0 0 249.998 43.752;"
	 xml:space="preserve">
<style type="text/css">
<![CDATA[
	.st0{fill:#7CA3B6;}
	.st1{fill:url(#SVGID_3_);}
	.st2{fill:url(#SVGID_4_);}
	.st3{fill:url(#SVGID_5_);}
	.st4{fill:url(#SVGID_6_);}
	.st5{fill:url(#SVGID_7_);}
	.st6{fill:#FFFFFF;}
]]>
</style>
<g>
	<g>
		<g>
			<defs>
				<polyline id="SVGID_1_" points="145.549,0 90.737,0 90.737,43.752 145.549,43.752 145.549,0 				"/>
			</defs>
			<clipPath id="SVGID_2_">
				<use xlink:href="#SVGID_1_"  style="overflow:visible;"/>
			</clipPath>
			<g transform="matrix(1 0 0 1 0 1.490116e-08)" style="clip-path:url(#SVGID_2_);">
				
					<image style="overflow:visible;" width="330" height="263" xlink:href="92CC880D5AFE1B64.png"  transform="matrix(0.1671 0 0 0.1676 90.5703 -0.1675)">
				</image>
			</g>
		</g>
		
			<linearGradient id="SVGID_3_" gradientUnits="userSpaceOnUse" x1="-179.6138" y1="524.5234" x2="-178.8995" y2="524.5234" gradientTransform="matrix(-0.1238 41.4668 -41.4668 -0.1238 21832.5312 7521.4062)">
			<stop  offset="0" style="stop-color:#305338"/>
			<stop  offset="1" style="stop-color:#AFC625"/>
		</linearGradient>
		<path class="st1" d="M92.701,19.346c0,0,8.361,10.879,23.367,8.951C116.068,28.296,108.778,7.876,92.701,19.346z"/>
		<path class="st6" d="M92.701,19.346l-0.167,0.128c0.017,0.02,7.114,9.258,20.003,9.262c1.142,0,2.329-0.071,3.559-0.23
			l0.153-0.099l0.019-0.182c-0.005-0.012-1.12-3.139-3.451-6.279c-2.328-3.134-5.892-6.306-10.792-6.308
			c-2.748,0-5.895,1.002-9.446,3.536l-0.087,0.141l0.042,0.159L92.701,19.346l0.123,0.172c3.5-2.497,6.558-3.457,9.201-3.458
			c4.701-0.001,8.158,3.051,10.453,6.139c1.145,1.542,1.995,3.087,2.557,4.245c0.281,0.579,0.49,1.062,0.63,1.398
			c0.069,0.168,0.121,0.301,0.155,0.39c0.034,0.09,0.051,0.136,0.051,0.136l0.198-0.071l-0.027-0.209
			c-1.212,0.156-2.381,0.228-3.504,0.228c-6.339,0-11.254-2.275-14.592-4.553c-1.667-1.14-2.939-2.278-3.792-3.131
			c-0.427-0.426-0.749-0.781-0.964-1.029c-0.107-0.124-0.188-0.221-0.242-0.286c-0.054-0.066-0.079-0.098-0.079-0.098L92.701,19.346
			l0.123,0.172L92.701,19.346z"/>
		
			<linearGradient id="SVGID_4_" gradientUnits="userSpaceOnUse" x1="-179.6133" y1="524.6504" x2="-178.9002" y2="524.6504" gradientTransform="matrix(-0.1239 41.4627 -41.4627 -0.1239 21848.5625 7520.75)">
			<stop  offset="0" style="stop-color:#305338"/>
			<stop  offset="1" style="stop-color:#AFC625"/>
		</linearGradient>
		<path class="st2" d="M117.248,20.311c0,0-20.259,10.075-0.054,18.972C117.193,39.283,137.883,31.887,117.248,20.311z"/>
		<path class="st6" d="M117.248,20.311l-0.091-0.184c-0.007,0.004-2.272,1.13-4.547,2.971c-2.269,1.841-4.578,4.397-4.587,7.327
			c-0.001,1.459,0.589,2.99,2.018,4.512c1.429,1.522,3.693,3.045,7.07,4.533l0.152,0.005c0.009-0.003,2.323-0.83,4.65-2.372
			c1.164-0.772,2.331-1.722,3.214-2.847c0.883-1.124,1.482-2.432,1.482-3.896c0.002-1.461-0.598-3.061-2.051-4.766
			c-1.455-1.707-3.763-3.528-7.21-5.462l-0.192-0.004L117.248,20.311l-0.1,0.179c3.419,1.918,5.69,3.717,7.098,5.37
			c1.408,1.655,1.954,3.154,1.955,4.5c0,1.349-0.551,2.565-1.396,3.643c-1.265,1.614-3.188,2.893-4.794,3.761
			c-0.802,0.435-1.525,0.767-2.047,0.989c-0.261,0.112-0.471,0.196-0.616,0.253s-0.222,0.084-0.222,0.084l0.069,0.193l0.083-0.188
			c-3.346-1.473-5.564-2.975-6.938-4.439c-1.374-1.466-1.905-2.884-1.906-4.23c-0.008-2.698,2.193-5.199,4.434-7.008
			c1.118-0.905,2.238-1.637,3.077-2.142c0.42-0.252,0.77-0.448,1.014-0.581c0.245-0.132,0.381-0.2,0.381-0.201L117.248,20.311
			l-0.1,0.179L117.248,20.311z"/>
		
			<linearGradient id="SVGID_5_" gradientUnits="userSpaceOnUse" x1="-179.6147" y1="524.5195" x2="-178.8994" y2="524.5195" gradientTransform="matrix(-0.1239 41.4654 -41.4654 -0.1239 21831.1562 7521.1875)">
			<stop  offset="0" style="stop-color:#305338"/>
			<stop  offset="1" style="stop-color:#AFC625"/>
		</linearGradient>
		<path class="st3" d="M94.015,27.223c0,0,6.699-0.91,9.219-5.2c0,0,6.003-3.161,10.666,6.647
			C113.9,28.67,105.914,39.122,94.015,27.223z"/>
		<path class="st6" d="M94.015,27.223l0.028,0.203c0.009-0.001,1.697-0.231,3.71-1.002c2.01-0.773,4.358-2.088,5.657-4.297
			l-0.177-0.104l0.096,0.183l0.035-0.019c0.177-0.083,1.009-0.444,2.194-0.444c1.051,0,2.38,0.28,3.804,1.292
			c1.424,1.013,2.945,2.766,4.352,5.725l0.185-0.089l-0.163-0.125c0,0-0.045,0.062-0.142,0.175c-0.678,0.794-3.716,3.993-8.37,3.989
			c-3.028-0.001-6.773-1.342-11.064-5.631L94.015,27.223l0.028,0.203L94.015,27.223l-0.145,0.146
			c4.34,4.342,8.199,5.751,11.354,5.751c2.771,0,4.981-1.082,6.494-2.16c1.514-1.078,2.336-2.153,2.345-2.165
			c0.047-0.061,0.055-0.144,0.022-0.213c-1.429-3.005-2.99-4.818-4.485-5.881c-1.493-1.063-2.917-1.369-4.042-1.368
			c-1.45,0-2.401,0.5-2.42,0.509l-0.082,0.078c-1.219,2.081-3.481,3.366-5.451,4.121c-0.983,0.376-1.89,0.622-2.55,0.772
			c-0.33,0.075-0.599,0.127-0.784,0.16s-0.284,0.046-0.285,0.046c-0.077,0.011-0.142,0.064-0.167,0.139
			c-0.025,0.073-0.006,0.155,0.049,0.21L94.015,27.223z"/>
		
			<linearGradient id="SVGID_6_" gradientUnits="userSpaceOnUse" x1="-179.6143" y1="524.7666" x2="-178.9009" y2="524.7666" gradientTransform="matrix(-0.1238 41.4635 -41.4635 -0.1238 21866 7520.9375)">
			<stop  offset="0" style="stop-color:#305338"/>
			<stop  offset="1" style="stop-color:#AFC625"/>
		</linearGradient>
		<path class="st4" d="M141.9,19.132c0,0-1.178,8.038-24.758,9.165C117.142,28.296,125.341,7.393,141.9,19.132z"/>
		<path class="st6" d="M141.9,19.132l-0.209-0.03l-0.002,0.013c-0.039,0.186-0.475,2.136-3.75,4.2
			c-3.277,2.062-9.408,4.227-20.808,4.771l0.01,0.21l0.196,0.077c0,0,0.076-0.192,0.23-0.538c0.541-1.207,2.04-4.24,4.488-6.958
			c2.451-2.72,5.833-5.114,10.156-5.113c2.777,0,5.961,0.985,9.566,3.54L141.9,19.132l-0.209-0.03L141.9,19.132l0.123-0.172
			c-3.656-2.593-6.93-3.618-9.811-3.618c-5.133,0.002-8.952,3.244-11.479,6.452c-2.529,3.212-3.784,6.414-3.789,6.426
			c-0.026,0.065-0.017,0.141,0.025,0.199c0.042,0.058,0.11,0.092,0.181,0.087c11.813-0.563,18.04-2.858,21.329-5.039
			c3.291-2.178,3.625-4.255,3.629-4.305c0.012-0.079-0.021-0.157-0.086-0.203L141.9,19.132z"/>
		<path class="st0" d="M131.916,2.409c0,0-15.919,0.428-14.668,26.715C117.248,29.126,138.811,17.808,131.916,2.409"/>
		<path class="st6" d="M131.91,2.198c-0.027,0.001-3.76,0.104-7.497,3.177c-3.74,3.073-7.449,9.113-7.446,20.879
			c0,0.925,0.022,1.885,0.07,2.881c0.003,0.072,0.044,0.138,0.107,0.174l0.203,0.003c0.009-0.005,4.029-2.113,8.058-5.761
			c4.024-3.645,8.079-8.834,8.083-15.027c0-1.978-0.416-4.054-1.379-6.202c-0.047-0.106-0.172-0.154-0.279-0.106
			c-0.105,0.047-0.152,0.172-0.105,0.278c0.939,2.098,1.342,4.111,1.342,6.029c0.004,5.996-3.955,11.106-7.944,14.715
			c-1.993,1.802-3.988,3.229-5.483,4.204c-0.748,0.487-1.371,0.861-1.807,1.113c-0.435,0.253-0.68,0.381-0.681,0.381l0.098,0.187
			l0.211-0.009c-0.047-0.99-0.07-1.943-0.07-2.861c0.002-11.683,3.664-17.565,7.292-20.553c1.816-1.494,3.631-2.265,4.991-2.662
			c0.68-0.199,1.246-0.304,1.639-0.359c0.197-0.027,0.352-0.043,0.457-0.051c0.104-0.008,0.154-0.009,0.154-0.009
			c0.115-0.003,0.207-0.101,0.205-0.216C132.123,2.287,132.025,2.195,131.91,2.198z"/>
		<path class="st0" d="M103.639,3.338c0,0,14.859-0.5,13.608,25.789C117.248,29.126,96.743,18.737,103.639,3.338"/>
		<path class="st6" d="M103.646,3.549l0.051-0.001c0.455,0,3.806,0.102,7.035,2.949c3.23,2.847,6.377,8.457,6.379,19.574
			c0,0.973-0.024,1.987-0.075,3.045l0.211,0.011l0.096-0.188c0-0.001-0.23-0.116-0.637-0.347c-1.428-0.803-5.009-2.98-8.223-6.239
			c-3.216-3.26-6.053-7.589-6.051-12.692c0-1.963,0.418-4.044,1.399-6.236c0.048-0.106,0-0.231-0.106-0.279
			c-0.106-0.048-0.231,0-0.278,0.106c-1.004,2.242-1.436,4.386-1.436,6.409c0.003,6.021,3.807,10.931,7.583,14.334
			c3.779,3.404,7.549,5.314,7.559,5.319l0.201-0.006c0.062-0.035,0.102-0.101,0.105-0.172c0.05-1.063,0.075-2.085,0.075-3.065
			c0.002-11.191-3.181-16.948-6.522-19.891c-3.34-2.942-6.802-3.054-7.314-3.054l-0.065,0.001c-0.117,0.004-0.208,0.102-0.204,0.219
			C103.433,3.462,103.53,3.553,103.646,3.549z"/>
		<path class="st0" d="M108.761,4.768c0,0-4.039,12.434,8.734,24.358C117.496,29.126,117.585,9.305,108.761,4.768z"/>
		<path class="st6" d="M108.761,4.768l-0.201-0.065c-0.005,0.016-0.616,1.902-0.616,4.91c-0.002,4.756,1.537,12.322,9.407,19.667
			c0.062,0.059,0.151,0.074,0.229,0.04c0.077-0.034,0.127-0.109,0.127-0.193v-0.023c-0.001-0.39-0.022-5.372-1.129-10.828
			c-0.553-2.729-1.379-5.576-2.615-8.031c-1.236-2.454-2.887-4.522-5.105-5.664l-0.176-0.007l-0.121,0.13L108.761,4.768
			l-0.096,0.188c2.105,1.082,3.708,3.071,4.92,5.478c3.642,7.219,3.703,18.112,3.699,18.669v0.023h0.21l0.144-0.154
			c-7.779-7.266-9.271-14.692-9.273-19.359c0-1.475,0.15-2.674,0.3-3.502c0.075-0.414,0.149-0.735,0.205-0.953
			c0.028-0.108,0.051-0.191,0.067-0.245l0.024-0.081L108.761,4.768l-0.096,0.188L108.761,4.768z"/>
		<path class="st0" d="M112.971,1.14c0,0-8.791,9.737,4.627,27.986C117.598,29.126,124.195,7.553,112.971,1.14z"/>
		<path class="st6" d="M112.971,1.14l-0.157-0.142c-0.021,0.023-2.881,3.205-2.881,9.313c-0.001,4.662,1.667,11.013,7.496,18.939
			c0.049,0.065,0.133,0.098,0.214,0.081c0.081-0.018,0.145-0.08,0.163-0.161l-0.206-0.045l0.203,0.057l0.003-0.012l-0.206-0.045
			l0.203,0.057c0.005-0.018,1.933-6.328,1.933-13.157c0-2.911-0.35-5.918-1.355-8.583c-1.005-2.663-2.675-4.985-5.304-6.486
			c-0.086-0.05-0.194-0.032-0.262,0.042L112.971,1.14l-0.104,0.183c2.53,1.446,4.137,3.673,5.118,6.27
			c0.982,2.596,1.329,5.557,1.329,8.433c0,3.38-0.479,6.644-0.958,9.06c-0.24,1.208-0.479,2.203-0.66,2.896
			c-0.089,0.348-0.165,0.617-0.217,0.802c-0.026,0.093-0.046,0.162-0.06,0.21l-0.016,0.054l-0.004,0.014l-0.001,0.003v0.001
			l-0.001,0.002l0,0.002l-0.001,0.005l0.205,0.053l0,0l0.17-0.125c-5.787-7.873-7.414-14.13-7.414-18.689
			c0-2.987,0.699-5.249,1.395-6.763c0.348-0.758,0.695-1.327,0.954-1.707c0.129-0.189,0.237-0.332,0.312-0.425l0.084-0.104
			l0.028-0.032L112.971,1.14l-0.104,0.183L112.971,1.14z"/>
		
			<linearGradient id="SVGID_7_" gradientUnits="userSpaceOnUse" x1="-179.6133" y1="524.7676" x2="-178.9005" y2="524.7676" gradientTransform="matrix(-0.1239 41.4701 -41.4701 -0.1239 21869.5625 7522.125)">
			<stop  offset="0" style="stop-color:#305338"/>
			<stop  offset="1" style="stop-color:#AFC625"/>
		</linearGradient>
		<path class="st5" d="M139.541,27.223c0,0-6.697-0.91-9.217-5.2c0,0-6.002-3.161-10.665,6.647
			C119.66,28.67,127.645,39.122,139.541,27.223z"/>
		<path class="st6" d="M139.541,27.223l0.027-0.203c0,0-0.1-0.013-0.285-0.046c-0.646-0.113-2.312-0.462-4.082-1.242
			c-1.77-0.779-3.633-1.991-4.699-3.812l-0.082-0.078c-0.02-0.01-0.971-0.509-2.42-0.509c-1.124-0.001-2.548,0.304-4.042,1.368
			c-1.494,1.062-3.056,2.876-4.484,5.881c-0.033,0.069-0.024,0.152,0.022,0.213c0.008,0.012,0.831,1.087,2.344,2.165
			s3.722,2.16,6.493,2.16c3.154,0,7.012-1.409,11.352-5.751c0.055-0.055,0.074-0.137,0.051-0.21
			c-0.025-0.074-0.09-0.128-0.168-0.139L139.541,27.223l-0.145-0.145c-4.293,4.289-8.035,5.63-11.062,5.631
			c-2.661,0-4.788-1.039-6.255-2.084c-0.733-0.522-1.299-1.045-1.681-1.435c-0.191-0.195-0.336-0.358-0.433-0.471l-0.109-0.132
			l-0.034-0.043l-0.163,0.125l0.186,0.089c1.406-2.959,2.927-4.712,4.351-5.725c1.424-1.012,2.753-1.291,3.804-1.292
			c0.678,0,1.238,0.118,1.629,0.234c0.195,0.059,0.348,0.116,0.449,0.159l0.115,0.051l0.035,0.019l0.096-0.183l-0.178,0.104
			c1.301,2.209,3.646,3.523,5.658,4.297c2.012,0.771,3.699,1.001,3.709,1.002L139.541,27.223l-0.145-0.145L139.541,27.223z"/>
		<path class="st0" d="M126.297,4.804c0,0,3.92,11.593-8.853,23.518C117.444,28.323,116.771,9.435,126.297,4.804z"/>
		<path class="st6" d="M126.297,4.804l-0.201,0.068l0.023,0.071c0.104,0.343,0.533,1.906,0.533,4.274
			c-0.002,4.408-1.481,11.599-9.353,18.95l0.145,0.155l0,0l0.209-0.03l-0.209,0.03l0.21-0.012l-0.001-0.019l-0.209,0.03l0.21-0.012
			l0,0c-0.001-0.033-0.01-0.316-0.01-0.795c0-1.816,0.13-6.468,1.296-11.154c1.165-4.69,3.37-9.391,7.448-11.368L126.297,4.804
			l-0.201,0.068L126.297,4.804l-0.092-0.189c-4.268,2.08-6.494,6.908-7.674,11.645c-1.179,4.741-1.307,9.417-1.308,11.255
			c0,0.259,0.003,0.463,0.005,0.601c0.001,0.069,0.002,0.122,0.003,0.158l0.001,0.041v0.011v0.003v0.001v0.002l0.001,0.001v0.004
			l0,0.009l0.002,0.015c0.015,0.075,0.069,0.138,0.142,0.162c0.073,0.023,0.154,0.006,0.21-0.046
			c7.958-7.426,9.49-14.757,9.487-19.259c-0.001-2.765-0.573-4.464-0.579-4.48l-0.118-0.127l-0.173,0.005L126.297,4.804z"/>
		<path class="st0" d="M121.857,1.14c0,0,8.79,9.737-4.627,27.986C117.231,29.126,110.634,7.553,121.857,1.14z"/>
		<path class="st6" d="M121.857,1.14L121.7,1.281l0.028,0.032c0.29,0.342,2.746,3.4,2.746,9c0,4.559-1.626,10.816-7.414,18.688
			l0.17,0.125h0.211l-0.005-0.046l-0.003-0.014c-0.016-0.052-1.917-6.309-1.917-13.042c0-2.876,0.347-5.837,1.327-8.433
			c0.982-2.596,2.589-4.823,5.119-6.269L121.857,1.14L121.7,1.281L121.857,1.14l-0.105-0.183c-2.628,1.501-4.299,3.823-5.303,6.486
			c-1.005,2.664-1.355,5.671-1.355,8.582c0,3.42,0.483,6.707,0.967,9.142c0.242,1.217,0.483,2.22,0.665,2.921
			c0.09,0.351,0.167,0.624,0.219,0.812c0.027,0.093,0.047,0.164,0.062,0.213l0.017,0.056l0.004,0.014l0,0.002l0.057-0.016
			l-0.057,0.016l0,0l0.057-0.016l-0.057,0.016l0.184-0.053l-0.184,0.051l0,0.002l0.184-0.053l-0.184,0.051l0.2-0.056l-0.201,0.052
			l0.001,0.004l0.2-0.056l-0.201,0.052l0.205-0.052l-0.206,0.045l0.001,0.007l0.205-0.052l-0.206,0.045l0.206-0.045h-0.21
			l0.004,0.045l0.206-0.045h-0.21c0,0.091,0.058,0.172,0.146,0.2c0.086,0.028,0.181-0.003,0.235-0.075
			c5.829-7.926,7.497-14.277,7.497-18.938c-0.001-6.109-2.861-9.291-2.883-9.314c-0.067-0.074-0.175-0.091-0.261-0.042L121.857,1.14
			z"/>
		<path class="st0" d="M113.541,5.945c0,0,9.028,3.609,3.939,23.126C117.481,29.072,105.191,16.271,113.541,5.945z"/>
		<path class="st6" d="M113.541,5.945l-0.078,0.196l0.051,0.023c0.276,0.128,1.6,0.808,2.857,2.636
			c1.257,1.829,2.452,4.812,2.453,9.574c0,2.862-0.434,6.367-1.549,10.645l0.205,0.053l0.152-0.146l-0.074-0.079
			c-0.744-0.795-6.724-7.515-6.714-14.818c0.001-2.646,0.774-5.369,2.861-7.95L113.541,5.945l-0.078,0.196L113.541,5.945
			l-0.164-0.132c-2.148,2.654-2.956,5.487-2.954,8.215c0.011,8.032,6.896,15.17,6.905,15.19c0.053,0.055,0.132,0.078,0.206,0.058
			c0.075-0.019,0.131-0.076,0.151-0.151c1.123-4.305,1.562-7.845,1.562-10.75c0-5.153-1.387-8.312-2.79-10.178
			c-1.402-1.867-2.812-2.436-2.837-2.447c-0.086-0.034-0.184-0.008-0.243,0.063L113.541,5.945z"/>
		<path class="st0" d="M121.202,5.945c0,0-9.029,3.609-3.942,23.126C117.262,29.072,129.551,16.271,121.202,5.945z"/>
		<path class="st6" d="M121.202,5.945l-0.078-0.196c-0.026,0.011-1.436,0.58-2.838,2.447c-1.403,1.867-2.792,5.026-2.79,10.181
			c0,2.905,0.438,6.444,1.561,10.747c0.02,0.075,0.077,0.133,0.151,0.151c0.074,0.021,0.152-0.003,0.205-0.058
			c0.01-0.018,6.896-7.158,6.908-15.19c0-2.729-0.807-5.561-2.955-8.215c-0.058-0.072-0.156-0.097-0.241-0.063L121.202,5.945
			l-0.165,0.133c2.086,2.581,2.859,5.303,2.861,7.95c0.001,3.894-1.691,7.625-3.393,10.377c-0.85,1.376-1.701,2.509-2.338,3.296
			c-0.319,0.393-0.584,0.7-0.77,0.908c-0.186,0.209-0.289,0.315-0.29,0.315l0.152,0.146l0.204-0.053
			c-1.114-4.275-1.548-7.779-1.547-10.642c0-5.08,1.361-8.137,2.706-9.928c0.672-0.895,1.343-1.474,1.842-1.829
			c0.25-0.178,0.457-0.298,0.6-0.375c0.072-0.039,0.127-0.065,0.164-0.083l0.041-0.018l0.011-0.005L121.202,5.945l-0.165,0.133
			L121.202,5.945z"/>
		<path class="st0" d="M117.035,27.431c0,0,1.579-21.312,21.731-17.47c0,0-3.631,1.157-8.209,11.313
			C127.846,27.29,120.891,29.723,117.035,27.431z"/>
		<path class="st6" d="M117.035,27.431l0.21,0.017c0-0.001,0.005-0.067,0.018-0.196c0.1-0.968,0.673-5.379,3.046-9.522
			c2.38-4.144,6.516-8.017,13.829-8.021c1.408,0,2.932,0.145,4.586,0.459l0.041-0.207l-0.064-0.201
			c-0.078,0.025-3.746,1.242-8.336,11.428c-1.994,4.433-6.353,6.887-9.971,6.885c-1.206,0-2.326-0.272-3.252-0.822L117.035,27.431
			l0.21,0.017L117.035,27.431l-0.108,0.182c1.003,0.596,2.199,0.88,3.468,0.88c3.801-0.003,8.283-2.542,10.355-7.132
			c2.281-5.062,4.322-7.87,5.781-9.406c0.729-0.769,1.312-1.22,1.711-1.477c0.197-0.128,0.348-0.209,0.447-0.257l0.111-0.048
			l0.025-0.009l0.002-0.001c0.094-0.029,0.154-0.117,0.146-0.213c-0.004-0.097-0.074-0.176-0.17-0.195
			c-1.678-0.32-3.23-0.467-4.666-0.467c-7.975-0.005-12.338,4.556-14.655,9.082c-2.326,4.527-2.657,9.033-2.659,9.047
			c-0.007,0.08,0.033,0.156,0.102,0.197L117.035,27.431z"/>
		<path class="st0" d="M129.312,11.51c0,0-12.065-2.642-12.065,17.589C117.248,29.099,131.562,21.443,129.312,11.51"/>
		<path class="st6" d="M129.357,11.304c-0.012-0.002-0.542-0.118-1.382-0.118c-1.606-0.001-4.356,0.427-6.696,2.901
			c-2.339,2.474-4.243,6.96-4.243,15.012v0.352l0.311-0.166c0.008-0.005,3.097-1.656,6.194-4.429
			c3.093-2.772,6.217-6.672,6.223-11.213c0-0.713-0.078-1.44-0.246-2.18c-0.025-0.113-0.139-0.185-0.252-0.159
			c-0.113,0.025-0.184,0.139-0.158,0.252c0.16,0.708,0.234,1.404,0.234,2.086c0.006,4.334-3.022,8.162-6.083,10.899
			c-1.527,1.367-3.057,2.462-4.205,3.213c-0.573,0.376-1.051,0.666-1.384,0.861c-0.333,0.196-0.521,0.296-0.521,0.297l0.099,0.186
			h0.211c0-7.99,1.889-12.355,4.127-14.722c2.238-2.366,4.851-2.769,6.389-2.77c0.4,0,0.726,0.028,0.95,0.056
			c0.113,0.014,0.199,0.027,0.258,0.037l0.084,0.016c0.113,0.025,0.227-0.047,0.252-0.161
			C129.543,11.442,129.473,11.329,129.357,11.304z"/>
		<path class="st0" d="M116.562,28.641c0,0-2-22.521-20.417-18.628c0,0,3.894,2.051,7.683,9.892
			C106.027,24.458,111.544,27.681,116.562,28.641z"/>
		<path class="st6" d="M116.562,28.641l0.21-0.018c-0.002-0.014-0.425-4.802-2.696-9.612c-1.135-2.405-2.734-4.817-4.984-6.633
			c-2.248-1.816-5.151-3.029-8.855-3.028c-1.281,0-2.657,0.145-4.135,0.457c-0.087,0.019-0.153,0.089-0.165,0.177
			c-0.013,0.088,0.032,0.174,0.11,0.216l0.038,0.021c0.407,0.235,4.017,2.461,7.553,9.776c2.249,4.641,7.813,7.877,12.884,8.854
			c0.065,0.012,0.133-0.008,0.181-0.052c0.05-0.043,0.075-0.109,0.069-0.175L116.562,28.641l0.039-0.206
			c-4.963-0.945-10.434-4.157-12.583-8.622c-3.807-7.879-7.738-9.968-7.775-9.987l-0.098,0.187l0.044,0.206
			c1.452-0.307,2.798-0.447,4.047-0.447c3.611,0.001,6.406,1.173,8.59,2.935c3.274,2.641,5.165,6.629,6.226,9.962
			c0.531,1.666,0.856,3.166,1.048,4.25c0.096,0.541,0.158,0.979,0.197,1.278c0.04,0.301,0.053,0.464,0.053,0.465L116.562,28.641
			l0.039-0.206L116.562,28.641z"/>
		<path class="st0" d="M104.984,11.592c0,0,12.562-2.723,12.562,17.507C117.546,29.099,104.301,22.432,104.984,11.592z"/>
		<path class="st6" d="M104.984,11.592l0.045,0.206l0.093-0.018c0.191-0.032,0.664-0.1,1.317-0.1
			c1.621,0.001,4.332,0.412,6.643,2.775c2.312,2.362,4.252,6.706,4.253,14.645h0.211l0.095-0.188c-0.001,0-0.191-0.096-0.532-0.288
			c-1.194-0.671-4.19-2.497-6.879-5.273c-2.69-2.777-5.061-6.493-5.06-10.948c0-0.263,0.008-0.528,0.025-0.796L104.984,11.592
			l0.045,0.206L104.984,11.592l-0.21-0.014c-0.018,0.277-0.027,0.551-0.027,0.823c0.003,5.272,3.196,9.492,6.363,12.391
			c3.17,2.9,6.331,4.49,6.341,4.496l0.306,0.154v-0.343c0.001-8.002-1.958-12.472-4.374-14.94c-2.415-2.468-5.257-2.901-6.944-2.901
			c-0.909,0-1.488,0.125-1.5,0.127l-0.156,0.034l-0.01,0.159L104.984,11.592z"/>
		<path class="st0" d="M117.262,29.072c0,0,8.805-6.377,7.409-13.96C124.669,15.111,116.087,17.223,117.262,29.072z"/>
		<path class="st6" d="M117.262,29.072l0.124,0.172c0.008-0.008,1.909-1.384,3.816-3.628c1.904-2.242,3.827-5.357,3.829-8.856
			c0-0.554-0.049-1.117-0.153-1.687l-0.094-0.139l-0.165-0.027c-0.021,0.005-1.933,0.477-3.852,2.217
			c-1.919,1.74-3.831,4.761-3.828,9.79c0,0.688,0.036,1.414,0.112,2.18c0.007,0.075,0.054,0.14,0.123,0.171
			c0.068,0.031,0.149,0.023,0.21-0.021L117.262,29.072l0.209-0.021c-0.074-0.752-0.109-1.464-0.109-2.138
			c0.002-4.923,1.85-7.803,3.69-9.478c0.92-0.836,1.842-1.367,2.532-1.689c0.345-0.161,0.632-0.27,0.831-0.337
			c0.1-0.034,0.177-0.058,0.229-0.073l0.077-0.021l-0.051-0.205l-0.208,0.038c0.101,0.544,0.146,1.081,0.146,1.61
			c0.003,3.338-1.854,6.38-3.729,8.583c-0.936,1.103-1.874,1.994-2.576,2.608c-0.351,0.308-0.644,0.546-0.848,0.707
			s-0.318,0.243-0.318,0.243L117.262,29.072l0.209-0.021L117.262,29.072z"/>
		<path class="st0" d="M117.453,29.072c0,0-8.803-6.377-7.409-13.96C110.044,15.111,118.147,18.417,117.453,29.072z"/>
		<path class="st6" d="M117.453,29.072l0.125-0.171c-0.001,0-0.115-0.082-0.319-0.243c-0.714-0.563-2.511-2.075-4.123-4.18
			c-1.613-2.105-3.032-4.798-3.031-7.719c0-0.529,0.046-1.066,0.146-1.609l-0.208-0.038l-0.079,0.195l0.077,0.033
			c0.391,0.176,2.207,1.064,3.919,3.019c1.71,1.956,3.323,4.969,3.325,9.439c0,0.407-0.014,0.828-0.042,1.261L117.453,29.072
			l0.125-0.171L117.453,29.072l0.21,0.014c0.028-0.442,0.042-0.872,0.042-1.288c0.002-4.88-1.89-8.111-3.783-10.105
			c-1.894-1.997-3.782-2.769-3.799-2.776l-0.181,0.01l-0.106,0.147c-0.104,0.569-0.153,1.133-0.153,1.686
			c0.003,3.5,1.925,6.615,3.829,8.857c1.908,2.243,3.808,3.62,3.816,3.628c0.062,0.045,0.144,0.053,0.214,0.02
			s0.116-0.101,0.121-0.178L117.453,29.072z"/>
		<path class="st0" d="M117.193,29.126c0,0-3.001-10.799,2.519-15.462C119.712,13.663,124.378,23.284,117.193,29.126z"/>
		<path class="st6" d="M117.193,29.126l0.204-0.058c0,0-0.05-0.178-0.125-0.502c-0.227-0.977-0.682-3.263-0.682-5.838
			c-0.001-3.164,0.689-6.739,3.258-8.904l-0.136-0.161l-0.19,0.092c0.001,0,0.021,0.044,0.061,0.133
			c0.28,0.623,1.409,3.36,1.408,6.571c-0.002,2.828-0.863,6.005-3.931,8.502L117.193,29.126l0.204-0.058L117.193,29.126l0.133,0.163
			c3.183-2.586,4.089-5.92,4.086-8.829c-0.001-3.782-1.504-6.873-1.511-6.889l-0.146-0.115l-0.18,0.045
			c-2.72,2.303-3.406,6.012-3.408,9.227c0,3.499,0.819,6.442,0.821,6.453c0.02,0.069,0.072,0.123,0.14,0.145
			c0.067,0.022,0.142,0.008,0.197-0.037L117.193,29.126z"/>
		<path class="st0" d="M117.395,29.126c0,0,3.004-10.799-2.518-15.462C114.877,13.663,110.214,23.284,117.395,29.126z"/>
		<path class="st6" d="M117.395,29.126l0.204,0.056c0.002-0.011,0.822-2.955,0.822-6.455c0-3.214-0.688-6.922-3.408-9.225
			l-0.136-0.05v0.211l0.143-0.155c-0.022-0.021-0.069-0.055-0.143-0.056v0.211l0.143-0.155l-0.143,0.155l0.194-0.083l-0.051-0.072
			l-0.143,0.155l0.194-0.083l-0.194,0.083l0.211,0l-0.018-0.083l-0.194,0.083l0.211,0c0-0.098-0.068-0.184-0.164-0.206
			c-0.096-0.022-0.194,0.025-0.237,0.113c-0.007,0.016-1.507,3.107-1.509,6.888c-0.003,2.91,0.902,6.244,4.084,8.83l0.336-0.107
			L117.395,29.126l0.133-0.164c-3.066-2.497-3.925-5.674-3.928-8.502c0-1.835,0.368-3.515,0.735-4.734
			c0.184-0.61,0.368-1.104,0.505-1.446c0.069-0.17,0.126-0.302,0.166-0.392c0.04-0.088,0.061-0.133,0.061-0.133l-0.19-0.092h-0.21
			l0.009,0.06l0.02,0.045l0.04,0.05c0.021,0.021,0.068,0.055,0.142,0.056v-0.211l-0.135,0.161c2.569,2.165,3.26,5.739,3.258,8.902
			c0,1.717-0.203,3.306-0.405,4.463c-0.101,0.579-0.202,1.051-0.278,1.377c-0.076,0.324-0.125,0.502-0.125,0.502L117.395,29.126
			l0.133-0.164L117.395,29.126z"/>
		<path class="st0" d="M116.955,29.126c0,0,7.525-0.002,11.204-3.136c3.266-2.786,2.943-4.582,6.75-7.906
			c0,0-11.522-3.509-17.874,8.2L116.955,29.126z"/>
		<path class="st6" d="M116.955,29.126v0.211c0.007,0,1.898,0,4.257-0.396c2.358-0.397,5.188-1.18,7.083-2.791
			c1.652-1.409,2.41-2.585,3.211-3.795c0.805-1.21,1.654-2.463,3.541-4.113c0.059-0.05,0.084-0.128,0.068-0.203
			c-0.016-0.075-0.07-0.135-0.145-0.157c-0.014-0.004-1.65-0.502-4.037-0.502c-3.979-0.006-10.077,1.405-14.084,8.802l-0.026,0.095
			l-0.08,2.843l0.061,0.152l0.151,0.064V29.126l0.211,0.005l0.08-2.841l-0.211-0.006l0.186,0.101
			c3.935-7.244,9.823-8.576,13.713-8.583c1.164,0,2.146,0.122,2.834,0.243c0.346,0.061,0.617,0.121,0.801,0.167
			c0.092,0.023,0.164,0.042,0.211,0.054l0.068,0.02l0.061-0.201l-0.137-0.159c-1.92,1.675-2.812,2.982-3.617,4.197
			c-0.805,1.216-1.521,2.33-3.135,3.707c-1.782,1.524-4.555,2.31-6.877,2.696c-1.162,0.194-2.211,0.292-2.968,0.341
			c-0.379,0.024-0.685,0.036-0.896,0.043c-0.21,0.005-0.324,0.005-0.324,0.005V29.126l0.211,0.005L116.955,29.126z"/>
		<path class="st0" d="M129.467,19.158c0,0-0.804,7.207-12.219,9.968c0,0,1.151-5.133,5.727-8.038
			c0.147-0.094,0.296-0.184,0.45-0.272C125.022,19.897,127.011,19.256,129.467,19.158z"/>
		<path class="st6" d="M129.467,19.158l-0.209-0.023l-0.01,0.071c-0.061,0.375-0.426,2.161-2.094,4.172
			c-1.669,2.011-4.642,4.257-9.956,5.543l0.049,0.205l0.206,0.046c0,0,0.016-0.073,0.056-0.216c0.274-1,1.646-5.198,5.577-7.689
			c0.145-0.092,0.292-0.18,0.443-0.267c1.569-0.903,3.522-1.534,5.947-1.631L129.467,19.158l-0.209-0.023L129.467,19.158
			l-0.008-0.21c-2.488,0.099-4.513,0.75-6.14,1.687c-0.156,0.089-0.309,0.181-0.459,0.276c-4.657,2.963-5.811,8.147-5.819,8.169
			c-0.015,0.071,0.006,0.146,0.059,0.197c0.052,0.05,0.127,0.071,0.197,0.054c5.747-1.388,8.852-3.909,10.509-6.096
			c1.656-2.187,1.867-4.027,1.871-4.053l-0.055-0.167l-0.164-0.067L129.467,19.158z"/>
		<path class="st0" d="M121.96,17.154c0,0-6.391,6.083-4.944,11.869C117.016,29.023,125.819,23.907,121.96,17.154z"/>
		<path class="st6" d="M121.96,17.154L121.815,17c-0.006,0.007-1.305,1.242-2.607,3.137c-1.301,1.895-2.614,4.451-2.616,7.119
			c0,0.603,0.068,1.212,0.219,1.818c0.017,0.063,0.062,0.118,0.123,0.144l0.188-0.013c0.009-0.005,1.503-0.873,3.004-2.375
			c1.499-1.5,3.021-3.644,3.023-6.214c0.001-1.125-0.295-2.326-1.006-3.568l-0.152-0.104L121.815,17L121.96,17.154l-0.184,0.104
			c0.677,1.186,0.951,2.307,0.952,3.358c0.002,2.394-1.438,4.455-2.9,5.916c-0.73,0.73-1.462,1.31-2.01,1.704
			c-0.273,0.198-0.502,0.35-0.661,0.451c-0.159,0.103-0.247,0.152-0.247,0.152l0.105,0.183l0.205-0.051
			c-0.143-0.57-0.207-1.146-0.207-1.716c-0.002-2.526,1.263-5.023,2.541-6.88c0.639-0.928,1.278-1.698,1.757-2.234
			c0.24-0.268,0.438-0.478,0.578-0.62s0.216-0.215,0.216-0.215L121.96,17.154l-0.184,0.104L121.96,17.154z"/>
		<path class="st0" d="M117.142,29.126c0,0-7.525-0.002-11.202-3.136c-3.27-2.786-2.949-4.582-6.753-7.906
			c0,0,11.522-3.509,17.873,8.2L117.142,29.126z"/>
		<path class="st6" d="M117.142,29.126v-0.212c0,0-0.114,0-0.325-0.005c-1.472-0.036-7.62-0.403-10.741-3.08
			c-1.614-1.377-2.331-2.492-3.136-3.707c-0.805-1.214-1.696-2.521-3.615-4.197l-0.138,0.159l0.061,0.201l0.069-0.02
			c0.329-0.09,1.808-0.464,3.846-0.464c3.889,0.007,9.777,1.338,13.712,8.583l0.185-0.101l-0.21,0.006l0.082,2.841L117.142,29.126
			v-0.212V29.126l0.211-0.007l-0.082-2.842l-0.026-0.095c-4.007-7.397-10.104-8.808-14.083-8.802c-2.387,0-4.023,0.498-4.037,0.502
			c-0.074,0.022-0.129,0.082-0.145,0.157c-0.016,0.075,0.01,0.152,0.068,0.203c1.886,1.649,2.737,2.902,3.541,4.113
			c0.802,1.21,1.56,2.386,3.215,3.795c1.894,1.611,4.723,2.394,7.081,2.791c2.359,0.396,4.25,0.396,4.257,0.396l0.151-0.064
			l0.06-0.153L117.142,29.126z"/>
		<path class="st0" d="M112.372,17.12c0,0,6.393,6.084,4.943,11.871C117.315,28.991,108.514,23.875,112.372,17.12z"/>
		<path class="st6" d="M112.372,17.12l-0.247,0.26l0.053,0.052c0.271,0.267,1.532,1.546,2.714,3.347
			c1.185,1.8,2.281,4.121,2.279,6.442c-0.001,0.562-0.063,1.124-0.204,1.684l0.348,0.086l0.18-0.31l-0.094,0.161l0.095-0.16l0-0.001
			l-0.094,0.161l0.095-0.16c-0.032-0.018-1.487-0.875-2.921-2.32c-1.438-1.446-2.827-3.464-2.822-5.778
			c0-1.025,0.266-2.12,0.931-3.286L112.372,17.12l-0.247,0.26L112.372,17.12l-0.312-0.177c-0.721,1.262-1.026,2.49-1.025,3.641
			c0.005,2.633,1.556,4.804,3.065,6.318c1.517,1.518,3.019,2.39,3.034,2.399l0.413,0.239l0.116-0.462
			c0.155-0.62,0.225-1.242,0.225-1.857c-0.004-2.717-1.334-5.293-2.642-7.201c-1.311-1.908-2.616-3.148-2.627-3.16l-0.331-0.315
			l-0.228,0.397L112.372,17.12z"/>
		<path class="st0" d="M112.372,17.12c0,0,6.393,6.084,4.943,11.871C117.315,28.991,108.514,23.875,112.372,17.12z"/>
		<path class="st6" d="M112.372,17.12l-0.146,0.153c0,0,0.077,0.073,0.216,0.215c0.979,0.992,4.887,5.311,4.876,9.732
			c0,0.573-0.064,1.147-0.208,1.718l0.205,0.052l0.106-0.182l-0.062-0.038c-0.315-0.192-1.766-1.113-3.128-2.552
			c-1.364-1.44-2.627-3.391-2.625-5.635c0-1.051,0.273-2.173,0.95-3.359L112.372,17.12l-0.146,0.153L112.372,17.12l-0.183-0.104
			c-0.711,1.242-1.007,2.443-1.006,3.568c0.002,2.57,1.524,4.714,3.022,6.214c1.502,1.502,2.994,2.369,3.004,2.375l0.188,0.012
			c0.061-0.025,0.107-0.078,0.123-0.142c0.152-0.608,0.22-1.219,0.22-1.822c-0.002-2.668-1.315-5.222-2.615-7.117
			c-1.303-1.895-2.601-3.13-2.607-3.136l-0.176-0.056l-0.152,0.104L112.372,17.12z"/>
		<path class="st0" d="M104.921,19.158c0,0,0.804,7.207,12.22,9.968c0,0-1.151-5.133-5.727-8.038
			c-0.147-0.094-0.296-0.184-0.451-0.272C109.366,19.897,107.379,19.256,104.921,19.158z"/>
		<path class="st6" d="M104.921,19.158l-0.21,0.023c0.003,0.026,0.213,1.867,1.871,4.053c1.657,2.187,4.762,4.708,10.509,6.096
			c0.07,0.018,0.145-0.004,0.197-0.054c0.052-0.052,0.074-0.126,0.058-0.197c-0.008-0.021-1.162-5.206-5.82-8.169
			c-0.15-0.096-0.302-0.187-0.458-0.276c-1.625-0.937-3.649-1.588-6.139-1.687l-0.163,0.067l-0.055,0.167L104.921,19.158
			l-0.009,0.211c2.427,0.097,4.377,0.728,5.946,1.631c0.152,0.087,0.299,0.175,0.442,0.267c2.247,1.426,3.658,3.403,4.506,5.027
			c0.424,0.812,0.707,1.534,0.883,2.052c0.089,0.259,0.15,0.468,0.19,0.61c0.039,0.143,0.055,0.216,0.055,0.216l0.207-0.046
			l0.049-0.205c-5.668-1.372-8.673-3.835-10.272-5.942c-0.799-1.054-1.246-2.021-1.494-2.722c-0.124-0.35-0.197-0.634-0.24-0.829
			c-0.021-0.097-0.035-0.172-0.042-0.222l-0.011-0.071L104.921,19.158l-0.009,0.211L104.921,19.158z"/>
		<path class="st0" d="M118.906,28.612c1.871-1.215,4.673-4.188,3.592-10.819c1.082,1.074,3.624,3.951,2.891,6.581
			C124.854,26.295,122.676,27.718,118.906,28.612z"/>
		<path class="st6" d="M122.803,18.412c1.173,1.272,3,3.694,2.383,5.906c-0.463,1.666-2.242,2.946-5.302,3.822
			C121.607,26.657,123.499,23.773,122.803,18.412 M122.179,17.201c1.954,10.104-4.852,11.951-4.852,11.951
			C132.789,26.393,122.179,17.201,122.179,17.201z"/>
		<path class="st0" d="M117.327,29.152c0,0-6.886-1.82-4.929-11.924C112.397,17.228,101.866,26.393,117.327,29.152z"/>
		<path class="st6" d="M117.327,29.152l0.053-0.203l-0.051-0.016c-0.268-0.082-1.541-0.527-2.737-1.76
			c-1.197-1.234-2.331-3.253-2.333-6.546c0-0.998,0.105-2.114,0.346-3.359c0.016-0.081-0.018-0.165-0.086-0.212
			c-0.067-0.047-0.157-0.051-0.228-0.009l-0.024,0.017l-0.01,0.009c-0.065,0.057-0.949,0.838-1.824,2.001
			c-0.872,1.162-1.746,2.705-1.75,4.312c-0.003,1.201,0.509,2.429,1.843,3.468c1.333,1.042,3.471,1.918,6.764,2.506
			c0.111,0.021,0.219-0.051,0.243-0.161c0.024-0.111-0.043-0.221-0.153-0.249L117.327,29.152l0.037-0.208
			c-3.253-0.579-5.33-1.444-6.578-2.423c-1.247-0.982-1.677-2.053-1.681-3.136c-0.003-1.474,0.845-2.985,1.708-4.117
			c0.431-0.566,0.864-1.039,1.188-1.368c0.162-0.164,0.296-0.293,0.39-0.381l0.109-0.1l0.028-0.024l0.006-0.006l0.001,0
			l-0.087-0.101l0.087,0.102l0,0l-0.087-0.101l0.087,0.102l-0.129-0.151l0.126,0.153l0.003-0.001l-0.129-0.151l0.126,0.153
			l-0.133-0.162l0.129,0.166l0.004-0.004l-0.133-0.162l0.129,0.166l-0.13-0.167l0.121,0.172l0.009-0.006l-0.13-0.167l0.121,0.172
			l-0.121-0.172l0,0l-0.207-0.04c-0.246,1.269-0.355,2.411-0.355,3.439c-0.002,3.618,1.348,5.816,2.707,7.089
			c1.357,1.274,2.709,1.633,2.73,1.64L117.327,29.152l0.037-0.208L117.327,29.152z"/>
		<path class="st0" d="M117.302,16.184c0,0-13.131,7.665-0.108,12.702C117.193,28.885,130.594,25.08,117.302,16.184z"/>
		<path class="st6" d="M117.302,16.184l-0.106-0.182c-0.007,0.004-1.484,0.866-2.969,2.21c-1.48,1.346-2.996,3.171-3.004,5.173
			c-0.002,0.991,0.388,2.01,1.32,2.973c0.932,0.964,2.398,1.882,4.575,2.725l0.065,0.025l0.068-0.02
			c0.01-0.003,1.52-0.43,3.044-1.345c0.763-0.458,1.53-1.038,2.114-1.756c0.583-0.718,0.983-1.584,0.983-2.588
			c0-0.994-0.392-2.108-1.331-3.334c-0.939-1.227-2.426-2.573-4.643-4.057l-0.109-0.073l-0.114,0.067L117.302,16.184l-0.117,0.175
			c2.191,1.466,3.643,2.789,4.541,3.963c0.9,1.175,1.245,2.196,1.245,3.077c-0.001,0.89-0.349,1.655-0.888,2.321
			c-0.808,0.998-2.047,1.746-3.085,2.236c-0.518,0.245-0.986,0.428-1.322,0.548c-0.169,0.061-0.305,0.105-0.398,0.135
			c-0.094,0.029-0.143,0.043-0.143,0.043l0.058,0.203l0.076-0.197c-2.141-0.827-3.554-1.724-4.423-2.624
			c-0.87-0.901-1.201-1.8-1.203-2.68c-0.007-1.774,1.411-3.549,2.865-4.86c0.725-0.656,1.452-1.197,1.996-1.573
			c0.273-0.188,0.499-0.335,0.657-0.435c0.158-0.099,0.246-0.15,0.247-0.15L117.302,16.184l-0.117,0.175L117.302,16.184z"/>
		<path class="st6" d="M117.551,28.661c0,0,1.949-1.583,1.557-5.227C119.108,23.434,120.339,27.605,117.551,28.661z"/>
		<path class="st6" d="M117.149,28.882c0,0-2.136-1.442-1.74-5.09C115.409,23.792,114.362,27.83,117.149,28.882z"/>
		<path class="st6" d="M132.76,20.328c0,0,3.752,0.213,5.166-0.59c0,0-1.395,0.947-5.594,0.859L132.76,20.328z"/>
		<path class="st6" d="M108.041,27.477c0,0-4.85,2.117-6.363,1.046c0,0,2.145,0.75,6.298-1.461L108.041,27.477z"/>
		<path class="st6" d="M117.967,29.157c0,0-1.772,2.598-0.874,6.484c0,0-1.221-2.708-0.336-6.594L117.967,29.157z"/>
		<path class="st6" d="M101.785,20.865c0,0-3.009,0.424-4.414-0.78c0,0,0.58,1.315,4.703,1.159l-0.066-0.334L101.785,20.865z"/>
		<path class="st6" d="M133.094,27.582c0,0-1.576,0.416-3.928-0.22c-1.699-0.459-2.875-0.123-2.875-0.123l-0.378,0.19
			c0,0,1.923-0.095,3.376,0.257C131.273,28.165,133.094,27.582,133.094,27.582z"/>
	</g>
	<path class="st6" d="M37.499,22.928c0,6.75-5.536,12.101-12.225,12.101c-6.687,0-12.226-5.351-12.226-12.101
		c0-6.719,5.537-12.164,12.226-12.164C31.963,10.765,37.499,16.209,37.499,22.928z M15.661,22.898c0,5.288,4.293,9.704,9.613,9.704
		c5.32,0,9.613-4.416,9.613-9.704c0-5.321-4.232-9.707-9.613-9.707C19.891,13.191,15.661,17.578,15.661,22.898z"/>
	<path class="st6" d="M45.835,34.626h-2.613V13.596H37.56V11.17h13.999v2.426h-5.725L45.835,34.626L45.835,34.626z"/>
	<path class="st6" d="M56.784,25.136c0,1.743-0.061,3.734,1.026,5.229c1.027,1.43,3.018,2.239,4.729,2.239
		c1.68,0,3.515-0.777,4.604-2.084c1.244-1.494,1.152-3.548,1.152-5.382V11.17h2.613v14.682c0,2.552-0.186,4.573-2.053,6.503
		c-1.618,1.741-3.951,2.674-6.313,2.674c-2.209,0-4.481-0.84-6.068-2.395c-2.052-1.96-2.302-4.106-2.302-6.781V11.17h2.614v13.966
		H56.784z"/>
	<path class="st6" d="M84.751,15.743c-0.934-1.619-2.053-2.552-4.043-2.552c-2.084,0-3.888,1.494-3.888,3.641
		c0,2.022,2.083,2.955,3.671,3.67l1.554,0.685c3.049,1.336,5.632,2.863,5.632,6.595c0,4.106-3.297,7.249-7.373,7.249
		c-3.765,0-6.563-2.429-7.31-6.067l2.551-0.714c0.344,2.395,2.178,4.354,4.699,4.354c2.519,0,4.821-1.929,4.821-4.572
		c0-2.739-2.146-3.671-4.323-4.667l-1.432-0.621c-2.737-1.245-5.102-2.645-5.102-6.005c0-3.639,3.081-5.973,6.565-5.973
		c2.612,0,4.821,1.338,6.065,3.64L84.751,15.743z"/>
	<path class="st6" d="M157.686,15.743c-0.932-1.619-2.055-2.552-4.043-2.552c-2.086,0-3.889,1.494-3.889,3.641
		c0,2.022,2.082,2.955,3.668,3.67l1.557,0.685c3.049,1.336,5.631,2.863,5.631,6.595c0,4.106-3.299,7.249-7.371,7.249
		c-3.766,0-6.564-2.429-7.311-6.067l2.551-0.714c0.342,2.395,2.178,4.354,4.697,4.354s4.822-1.929,4.822-4.572
		c0-2.739-2.148-3.671-4.324-4.667l-1.434-0.621c-2.736-1.245-5.102-2.645-5.102-6.005c0-3.639,3.08-5.973,6.564-5.973
		c2.615,0,4.822,1.338,6.066,3.64L157.686,15.743z"/>
	<path class="st6" d="M167.949,27.968l-2.83,6.658h-2.861l10.824-24.577l10.547,24.577h-2.893l-2.77-6.658H167.949z M173.021,16.147
		l-4.016,9.395h7.934L173.021,16.147z"/>
	<path class="st6" d="M188.791,32.199h10.752v2.427h-13.367V11.17h2.615V32.199L188.791,32.199z"/>
	<path class="st6" d="M2.615,32.199h10.751v2.427H0V11.17h2.615V32.199L2.615,32.199z"/>
	<path class="st6" d="M226.107,22.928c0,6.75-5.539,12.101-12.229,12.101c-6.688,0-12.225-5.351-12.225-12.101
		c0-6.719,5.537-12.164,12.225-12.164C220.568,10.766,226.107,16.209,226.107,22.928z M204.268,22.898
		c0,5.288,4.293,9.704,9.611,9.704c5.32,0,9.615-4.416,9.615-9.704c0-5.321-4.232-9.707-9.615-9.707
		C208.498,13.191,204.268,17.578,204.268,22.898z"/>
	<path class="st6" d="M230.518,10.174l16.865,19.163V11.17h2.615v24.514l-16.865-19.133v18.076h-2.615V10.174L230.518,10.174z"/>
</g>
</svg>
