<?xml version="1.0" encoding="utf-8"?>
<!-- Generator: Adobe Illustrator 16.0.0, SVG Export Plug-In . SVG Version: 6.00 Build 0)  -->
<svg version="1.2" baseProfile="tiny" id="Layer_1" xmlns="http://www.w3.org/2000/svg" xmlns:xlink="http://www.w3.org/1999/xlink"
	 x="0px" y="0px" width="100.001px" height="100.511px" viewBox="0 0 100.001 100.511" xml:space="preserve">
<g>
	<path fill="#FCFCFC" d="M100.001,31.888l-5.357,4.337c-5.783,4.424-10.714,6.632-14.796,6.632c-4.253,0-8.929-2.551-14.031-7.652
		c-4.082-4.249-9.271-6.378-15.562-6.378c-5.955,0-11.057,2.097-15.306,6.29c-4.253,4.193-6.377,9.279-6.377,15.267
		c0,6.158,2.125,11.332,6.377,15.525c4.249,4.193,9.351,6.286,15.306,6.286h16.327c5.951,0,10.97,2.064,15.051,6.193
		c4.082,4.13,6.123,9.061,6.123,14.792v7.331H43.623c-12.245-1.87-22.577-7.565-30.996-17.093C4.209,73.896,0,62.843,0,50.255
		C0,36.48,4.887,24.661,14.668,14.796C24.446,4.935,36.309,0,50.255,0c15.816,0,28.229,5.528,37.246,16.582L100.001,31.888z"/>
</g>
<g>
</g>
<g>
</g>
<g>
</g>
<g>
</g>
<g>
</g>
<g>
</g>
<g>
</g>
<g>
</g>
<g>
</g>
<g>
</g>
<g>
</g>
<g>
</g>
<g>
</g>
<g>
</g>
<g>
</g>
</svg>

